# xmcd CD database file
#
# Track frame offsets:
#	150
#	22778
#	71124
#	95204
#	110316
#	129533
#	152963
#	174340
#	196382
#	210965
#
# Disc length: 3042 seconds
#
# Revision: 0
# Processed by: cddbd v1.5.2PL0 Copyright (c) Steve Scherf et al.
# Submitted via: CDex 1.51
#
DISCID=830be00a
DTITLE=String Island - Energy
DYEAR=1900
DGENRE=Jazz
TTITLE0=Energy
TTITLE1=Sequeros
TTITLE2=Max
TTITLE3=Y si no fuera por Emiliana
TTITLE4=Thinking corner
TTITLE5=Crazy
TTITLE6=String Island
TTITLE7=Blue for Sara
TTITLE8=Julie-O
TTITLE9=Alessandra's Theme
EXTD=
EXTT0=
EXTT1=
EXTT2=
EXTT3=
EXTT4=
EXTT5=
EXTT6=
EXTT7=
EXTT8=
EXTT9=
PLAYORDER=
